<svg xmlns="http://www.w3.org/2000/svg" width="28" height="28" viewBox="0 0 28 28"><g transform="translate(-13 -439)"><path d="M14,2A12,12,0,0,0,5.515,22.485,12,12,0,1,0,22.485,5.515,11.921,11.921,0,0,0,14,2m0-2A14,14,0,1,1,0,14,14,14,0,0,1,14,0Z" transform="translate(13 439)" fill="#b6b6b6"/><path d="M7.07,0h-1.6V-12.1a3.707,3.707,0,0,1-.542.425,8.835,8.835,0,0,1-.8.474q-.444.234-.937.439a6.813,6.813,0,0,1-.962.322v-1.621a9.311,9.311,0,0,0,1.118-.4q.591-.249,1.162-.557t1.079-.645a8.567,8.567,0,0,0,.879-.659H7.07Z" transform="translate(22.773 460.316)" fill="#b6b6b6"/></g></svg>