<svg xmlns="http://www.w3.org/2000/svg" xmlns:xlink="http://www.w3.org/1999/xlink" width="189" height="92" viewBox="0 0 189 92"><defs><clipPath id="a"><rect width="189" height="92" fill="none"/></clipPath></defs><path d="M41,10.268h-.945V3.538L37.8,10.268H37.02L34.764,3.5v6.765h-.943V1.915h1.261l2.326,6.454,2.326-6.454H41Z" transform="translate(7.426 0.42)" fill="#353639"/><path d="M51.043,2.331v8.353H56.13V9.689H52.081V7.07H55.6V6.076H52.081V3.313H56.13V2.331ZM54.313,0,52.955,1.659h1.074L55.577,0Z" transform="translate(11.207)" fill="#353639"/><path d="M73.187,2.9H70.579v7.366h-1.04V2.9H66.93V1.915h6.257Z" transform="translate(14.695 0.421)" fill="#353639"/><g clip-path="url(#a)"><path d="M83.276,7.807V4.468c0-1.645,1.062-2.674,3.153-2.674s3.153,1.029,3.153,2.674v3.34c0,1.623-1.052,2.64-3.139,2.64s-3.167-1.017-3.167-2.64m5.266-.1V4.548c0-1.14-.591-1.764-2.1-1.764s-2.127.628-2.127,1.764V7.711c0,1.126.591,1.742,2.113,1.742s2.113-.616,2.113-1.742" transform="translate(18.284 0.394)" fill="#353639"/><path d="M105.781,4.534V7.65c0,1.624-1.072,2.619-3.034,2.619H99.759V1.914h2.975c1.974,0,3.047,1,3.047,2.619m-1.038.083c0-1.112-.613-1.719-1.936-1.719h-2V9.268H102.8c1.335,0,1.948-.593,1.948-1.719V4.616Z" transform="translate(21.903 0.42)" fill="#353639"/><path d="M116.009,7.807V4.468c0-1.645,1.062-2.674,3.153-2.674s3.153,1.029,3.153,2.674v3.34c0,1.623-1.053,2.64-3.14,2.64s-3.165-1.017-3.165-2.64m5.266-.1V4.548c0-1.14-.591-1.764-2.1-1.764s-2.126.628-2.126,1.764V7.711c0,1.126.591,1.742,2.113,1.742s2.113-.616,2.113-1.742" transform="translate(25.471 0.394)" fill="#353639"/></g><path d="M13.383,26.34,10.058,40.8,6.364,26.34H0L5.831,47.353h8.086L19.747,26.34Z" transform="translate(0 5.783)" fill="#353639"/><g clip-path="url(#a)"><path d="M34.9,33.87v4.9H22.419v.37c0,2.844,1.436,4,3.367,4,1.355,0,2.914-.784,2.914-1.938V40.79h6.158c0,4.449-3.694,7.292-9.156,7.292-5.911,0-9.441-3.666-9.441-9.227V34.94c0-5.561,3.53-9.1,9.441-9.1,5.378,0,9.2,3.459,9.2,8.034m-6.28.493V33.87c0-2.061-.9-3.088-2.875-3.088-2.133,0-3.241,1.234-3.325,3.585h6.2Z" transform="translate(3.57 5.673)" fill="#353639"/><path d="M53.788,35.27V47.464H47.63V35.144c0-2.515-1.562-3.708-3.283-3.708a3.243,3.243,0,0,0-3.367,3.337v12.69H34.822V26.451h3.941l1.109,1.483a8.891,8.891,0,0,1,6-2.1c4.76,0,7.921,2.763,7.921,9.437" transform="translate(7.646 5.672)" fill="#353639"/><path d="M71.563,17.558V49.28H67.5l-.986-1.4A8.581,8.581,0,0,1,60.56,49.9c-5.088,0-8.25-2.637-8.25-8.9v-4.45c0-6.261,3.162-8.9,8.25-8.9a9.4,9.4,0,0,1,4.845,1.2V17.562h6.158ZM65.4,40.959V36.594c0-2.224-1.436-3.337-3.531-3.337a3.129,3.129,0,0,0-3.408,3.46v4.12a3.127,3.127,0,0,0,3.408,3.46c2.053,0,3.531-1.113,3.531-3.337" transform="translate(11.486 3.855)" fill="#353639"/><path d="M89.452,26.451V47.463H85.388l-.986-1.4a8.789,8.789,0,0,1-6.033,2.018c-5.008,0-8.169-2.679-8.169-8.9v-4.45c0-6.223,3.162-8.9,8.169-8.9A8.783,8.783,0,0,1,84.4,27.853l.986-1.4h4.064ZM83.3,39.142V34.776c0-2.224-1.436-3.337-3.531-3.337a3.128,3.128,0,0,0-3.407,3.46v4.12a3.126,3.126,0,0,0,3.407,3.46c2.053,0,3.531-1.113,3.531-3.337" transform="translate(15.413 5.673)" fill="#353639"/><path d="M105.96,43.425v5.561h-3.446c-5.131,0-7.8-2.8-7.8-8.363V33.537H91.921V27.975h2.791v-5.89h6.159v5.89h4.8v5.563h-4.8v5.974c0,2.554,1.067,3.914,3.077,3.914Z" transform="translate(20.183 4.849)" fill="#353639"/><path d="M105.021,39.551V35.515c0-5.562,3.531-9.105,9.525-9.105,6.075,0,9.605,3.543,9.605,9.105v4.036c0,5.561-3.53,9.105-9.563,9.105s-9.567-3.544-9.567-9.105m12.972-.042V35.553c0-2.347-1.109-3.585-3.409-3.585s-3.408,1.234-3.408,3.585v3.956c0,2.347,1.067,3.586,3.367,3.586,2.342,0,3.451-1.235,3.451-3.586" transform="translate(23.059 5.799)" fill="#353639"/><path d="M141.534,18.132V49.855H137.47l-.986-1.4a8.577,8.577,0,0,1-5.952,2.018c-5.088,0-8.25-2.637-8.25-8.9V37.126c0-6.263,3.162-8.9,8.25-8.9a9.4,9.4,0,0,1,4.845,1.2V18.135h6.158Zm-6.158,23.4V37.167c0-2.224-1.436-3.336-3.531-3.336a3.128,3.128,0,0,0-3.408,3.459v4.121a3.127,3.127,0,0,0,3.408,3.459c2.053,0,3.531-1.112,3.531-3.337" transform="translate(26.849 3.981)" fill="#353639"/><path d="M139.314,39.551V35.515c0-5.562,3.531-9.105,9.525-9.105,6.074,0,9.605,3.543,9.605,9.105v4.036c0,5.561-3.531,9.105-9.563,9.105s-9.567-3.544-9.567-9.105m12.972-.042V35.553c0-2.347-1.109-3.585-3.409-3.585s-3.408,1.234-3.408,3.585v3.956c0,2.347,1.067,3.586,3.367,3.586,2.342,0,3.451-1.235,3.451-3.586" transform="translate(30.588 5.799)" fill="#353639"/><path d="M10.457,70.806V69.774H16.82v1.441c0,2.224,2.587,3.585,5.5,3.585,2.137,0,4.638-.948,4.638-3.294,0-5.482-15.885-2.225-15.885-12.73,0-4.736,3.2-8.777,10.8-8.777,7.431,0,11,3.709,11,8.9V60.26H26.509V58.735c0-1.77-2.094-2.966-4.719-2.966-2.379,0-4.311.948-4.311,2.845,0,4.327,15.886,2.018,15.886,12.606,0,5.233-3.942,9.27-11.2,9.27-7.313,0-11.7-4-11.7-9.683" transform="translate(2.296 10.978)" fill="#00a99d"/><path d="M49.784,53.284V74.3H45.72l-.986-1.4A8.784,8.784,0,0,1,38.7,74.915c-5.008,0-8.169-2.68-8.169-8.9V61.567c0-6.223,3.162-8.9,8.169-8.9a8.779,8.779,0,0,1,6.032,2.019l.986-1.4h4.064Zm-6.158,12.69V61.606c0-2.225-1.436-3.338-3.531-3.338a3.129,3.129,0,0,0-3.408,3.46v4.121a3.128,3.128,0,0,0,3.408,3.46c2.053,0,3.531-1.109,3.531-3.335" transform="translate(6.704 11.564)" fill="#00a99d"/><path d="M68.817,62.1V74.3H62.659V61.977c0-2.516-1.562-3.709-3.283-3.709a3.245,3.245,0,0,0-3.368,3.338V74.3H49.851V53.284h3.941L54.9,54.768a8.891,8.891,0,0,1,6-2.1c4.76,0,7.921,2.763,7.921,9.437" transform="translate(10.945 11.563)" fill="#00a99d"/><path d="M81.158,69.684v5.561H77.711c-5.13,0-7.8-2.8-7.8-8.363V59.8H67.119V54.233H69.91V48.343H76.07v5.891h4.8V59.8h-4.8V65.77c0,2.554,1.067,3.914,3.077,3.914Z" transform="translate(14.737 10.614)" fill="#00a99d"/><path d="M80.513,65.758V61.734c0-5.539,3.528-9.065,9.518-9.065,6.071,0,9.6,3.53,9.6,9.065v4.024c0,5.54-3.528,9.066-9.56,9.066s-9.56-3.529-9.56-9.066m12.966-.042v-3.94c0-2.339-1.109-3.57-3.405-3.57s-3.405,1.231-3.405,3.57v3.94c0,2.339,1.067,3.571,3.363,3.571,2.343,0,3.447-1.235,3.447-3.571" transform="translate(17.678 11.564)" fill="#00a99d"/><path d="M116.785,47.465c-.234,0-.463-.007-.69-.017v8a9.384,9.384,0,0,0-4.845-1.2c-5.088,0-8.25,2.637-8.25,8.9V67.6c0,6.262,3.162,8.9,8.25,8.9a8.577,8.577,0,0,0,5.952-2.017l.986,1.4h4.064V46.169a10.905,10.905,0,0,1-5.468,1.3m-.69,20.093c0,2.225-1.478,3.338-3.531,3.338a3.129,3.129,0,0,1-3.408-3.46V63.316a3.128,3.128,0,0,1,3.408-3.46c2.1,0,3.531,1.113,3.531,3.338Z" transform="translate(22.615 10.137)" fill="#353639"/><path d="M121.21,46.547h6.158v6.017H121.21Zm0,8.237h6.158V75.8H121.21Z" transform="translate(26.614 10.22)" fill="#353639"/><path d="M147.716,53.412V74.424h-4.064l-.986-1.4a8.792,8.792,0,0,1-6.033,2.019c-5.009,0-8.169-2.68-8.169-8.9V61.7c0-6.224,3.161-8.9,8.169-8.9a8.779,8.779,0,0,1,6.033,2.019l.986-1.4h4.064ZM141.561,66.1V61.734c0-2.224-1.436-3.337-3.531-3.337a3.129,3.129,0,0,0-3.408,3.46v4.121a3.127,3.127,0,0,0,3.408,3.459c2.053,0,3.531-1.108,3.531-3.334" transform="translate(28.206 11.592)" fill="#353639"/></g></svg>